<?xml version="1.0" encoding="UTF-8"?>
<svg height="128px" viewBox="0 0 128 128" width="128px" xmlns="http://www.w3.org/2000/svg" xmlns:xlink="http://www.w3.org/1999/xlink">
    <linearGradient id="a" gradientTransform="matrix(0.25 0 0 0.243056 -16 -80.435722)" gradientUnits="userSpaceOnUse" x1="176" x2="494.999939" y1="799.963867" y2="799.963867">
        <stop offset="0"/>
        <stop offset="0.0470219" stop-color="#424048"/>
        <stop offset="0.0971787" stop-color="#241f31"/>
        <stop offset="0.899687" stop-color="#241f31"/>
        <stop offset="0.949843" stop-color="#424048"/>
        <stop offset="1"/>
    </linearGradient>
    <linearGradient id="b" gradientTransform="matrix(0.25 0 0 0.243056 -16 -80.435722)" gradientUnits="userSpaceOnUse" x1="177" x2="496" y1="619.963867" y2="619.963867">
        <stop offset="0" stop-color="#424048"/>
        <stop offset="0.0470219" stop-color="#f6f5f4"/>
        <stop offset="0.0971787" stop-color="#949390"/>
        <stop offset="0.899687" stop-color="#d5d3cf"/>
        <stop offset="0.949843" stop-color="#f6f5f4"/>
        <stop offset="1" stop-color="#424048"/>
    </linearGradient>
    <linearGradient id="c" gradientUnits="userSpaceOnUse" x1="68.000008" x2="68.000008" y1="2.249954" y2="106.249954">
        <stop offset="0" stop-color="#deddda"/>
        <stop offset="1" stop-color="#f6f5f4"/>
    </linearGradient>
    <radialGradient id="d" cx="112.042053" cy="132.151825" gradientTransform="matrix(0.573927 -0.480654 0.340622 0.406722 -24.35643 101.866379)" gradientUnits="userSpaceOnUse" r="144">
        <stop offset="0" stop-color="#d5d3cf"/>
        <stop offset="0.129392" stop-color="#949390"/>
        <stop offset="0.257694" stop-color="#d5d3cf"/>
        <stop offset="0.334113" stop-color="#deddda"/>
        <stop offset="0.446104" stop-color="#949390"/>
        <stop offset="0.51534" stop-color="#deddda"/>
        <stop offset="0.657589" stop-color="#f6f5f4"/>
        <stop offset="0.809046" stop-color="#949390"/>
        <stop offset="1" stop-color="#ffffff"/>
    </radialGradient>
    <linearGradient id="e" gradientUnits="userSpaceOnUse" x1="71.737076" x2="58.449963" y1="55.185486" y2="32.171528">
        <stop offset="0" stop-color="#dfddd9"/>
        <stop offset="1" stop-color="#f9f9f8"/>
    </linearGradient>
    <linearGradient id="f" gradientUnits="userSpaceOnUse">
        <stop offset="0" stop-opacity="0.25098"/>
        <stop offset="1" stop-opacity="0.031373"/>
    </linearGradient>
    <radialGradient id="g" cx="35.999989" cy="104.895096" r="4" xlink:href="#f"/>
    <linearGradient id="h" gradientUnits="userSpaceOnUse">
        <stop offset="0" stop-color="#949390"/>
        <stop offset="1" stop-color="#424048"/>
    </linearGradient>
    <radialGradient id="i" cx="28.104889" cy="105.271286" r="2.077984" xlink:href="#h"/>
    <radialGradient id="j" cx="99.999992" cy="104.895096" r="4" xlink:href="#f"/>
    <radialGradient id="k" cx="100.000038" cy="104.939369" r="2.751304" xlink:href="#h"/>
    <radialGradient id="l" cx="99.999992" cy="14.8951" r="4" xlink:href="#f"/>
    <radialGradient id="m" cx="100.000038" cy="14.93937" r="2.751304" xlink:href="#h"/>
    <radialGradient id="n" cx="27.99999" cy="14.8951" r="4" xlink:href="#f"/>
    <radialGradient id="o" cx="28.000042" cy="14.93937" r="2.751304" xlink:href="#h"/>
    <linearGradient id="p" gradientUnits="userSpaceOnUse" x1="14" x2="14" y1="58.5" y2="28">
        <stop offset="0" stop-color="#9a9996"/>
        <stop offset="1" stop-color="#77767b"/>
    </linearGradient>
    <radialGradient id="q" cx="-243.066589" cy="-74.599976" gradientTransform="matrix(0 -1 -1 0 -50 -204)" gradientUnits="userSpaceOnUse" r="28.266657">
        <stop offset="0" stop-color="#d5d3cf"/>
        <stop offset="1" stop-color="#949390"/>
    </radialGradient>
    <linearGradient id="r" gradientTransform="matrix(0 1 -1 0 -50 -204)" gradientUnits="userSpaceOnUse" x1="203.999985" x2="268" y1="-64" y2="-64">
        <stop offset="0" stop-color="#d5d3cf"/>
        <stop offset="1" stop-color="#f6f5f4"/>
    </linearGradient>
    <path d="m 28 50 h 72 c 4.433594 0 8 3.566406 8 8 v 54 c 0 4.433594 -3.566406 8 -8 8 h -72 c -4.433594 0 -8 -3.566406 -8 -8 v -54 c 0 -4.433594 3.566406 -8 8 -8 z m 0 0" fill="url(#a)"/>
    <path d="m 28 44 h 72 c 4.433594 0 8 3.566406 8 8 v 54 c 0 4.433594 -3.566406 8 -8 8 h -72 c -4.433594 0 -8 -3.566406 -8 -8 v -54 c 0 -4.433594 3.566406 -8 8 -8 z m 0 0" fill="url(#b)"/>
    <path d="m 28 8 h 72 c 4.433594 0 8 3.773438 8 8.457031 v 87.085938 c 0 4.683593 -3.566406 8.457031 -8 8.457031 h -72 c -4.433594 0 -8 -3.773438 -8 -8.457031 v -87.085938 c 0 -4.683593 3.566406 -8.457031 8 -8.457031 z m 0 0" fill="url(#c)"/>
    <path d="m 38 12 c -2.214844 0 -4 1.785156 -4 4 c 0 3.3125 -2.6875 6 -6 6 c -2.214844 0 -4 1.785156 -4 4 v 8 c 0 2.214844 1.785156 4 4 4 c 3.3125 0 6 2.6875 6 6 c -0.003906 1.476562 -0.550781 2.902344 -1.539062 4 c -5.921876 6.59375 -8.445313 15.136719 -8.460938 24 c 0 19.882812 20.117188 36 40 36 s 40 -16.117188 40 -36 c -0.015625 -8.863281 -2.539062 -17.410156 -8.464844 -24 c -0.984375 -1.097656 -1.53125 -2.523438 -1.535156 -4 c 0 -3.3125 2.6875 -6 6 -6 c 2.214844 0 4 -1.785156 4 -4 v -8 c 0 -2.214844 -1.785156 -4 -4 -4 c -3.3125 0 -6 -2.6875 -6 -6 c 0 -2.214844 -1.785156 -4 -4 -4 z m 26 52 c 3.3125 0 6 2.6875 6 6 s -2.6875 6 -6 6 s -6 -2.6875 -6 -6 s 2.6875 -6 6 -6 z m 0 0" fill="url(#d)"/>
    <path d="m 38 10 c -2.214844 0 -4 1.785156 -4 4 c 0 3.3125 -2.6875 6 -6 6 c -2.214844 0 -4 1.785156 -4 4 v 8 c 0 2.214844 1.785156 4 4 4 c 3.3125 0 6 2.6875 6 6 c -0.003906 1.476562 -0.550781 2.902344 -1.539062 4 c -5.921876 6.59375 -8.445313 15.136719 -8.460938 24 c 0 19.882812 20.117188 36 40 36 s 40 -16.117188 40 -36 c -0.015625 -8.863281 -2.539062 -17.410156 -8.464844 -24 c -0.984375 -1.097656 -1.53125 -2.523438 -1.535156 -4 c 0 -3.3125 2.6875 -6 6 -6 c 2.214844 0 4 -1.785156 4 -4 v -8 c 0 -2.214844 -1.785156 -4 -4 -4 c -3.3125 0 -6 -2.6875 -6 -6 c 0 -2.214844 -1.785156 -4 -4 -4 z m 26 52 c 3.3125 0 6 2.6875 6 6 s -2.6875 6 -6 6 s -6 -2.6875 -6 -6 s 2.6875 -6 6 -6 z m 0 0" fill="url(#e)"/>
    <path d="m 32 106 c 0 2.210938 -1.789062 4 -4 4 s -4 -1.789062 -4 -4 s 1.789062 -4 4 -4 s 4 1.789062 4 4 z m 0 0" fill="url(#g)"/>
    <path d="m 30 106 c 0 1.105469 -0.894531 2 -2 2 s -2 -0.894531 -2 -2 s 0.894531 -2 2 -2 s 2 0.894531 2 2 z m 0 0" fill="url(#i)"/>
    <path d="m 104 106 c 0 2.210938 -1.789062 4 -4 4 s -4 -1.789062 -4 -4 s 1.789062 -4 4 -4 s 4 1.789062 4 4 z m 0 0" fill="url(#j)"/>
    <path d="m 102 106 c 0 1.105469 -0.894531 2 -2 2 s -2 -0.894531 -2 -2 s 0.894531 -2 2 -2 s 2 0.894531 2 2 z m 0 0" fill="url(#k)"/>
    <path d="m 104 16 c 0 2.210938 -1.789062 4 -4 4 s -4 -1.789062 -4 -4 s 1.789062 -4 4 -4 s 4 1.789062 4 4 z m 0 0" fill="url(#l)"/>
    <path d="m 102 16 c 0 1.105469 -0.894531 2 -2 2 s -2 -0.894531 -2 -2 s 0.894531 -2 2 -2 s 2 0.894531 2 2 z m 0 0" fill="url(#m)"/>
    <path d="m 32 16 c 0 2.210938 -1.789062 4 -4 4 s -4 -1.789062 -4 -4 s 1.789062 -4 4 -4 s 4 1.789062 4 4 z m 0 0" fill="url(#n)"/>
    <path d="m 30 16 c 0 1.105469 -0.894531 2 -2 2 s -2 -0.894531 -2 -2 s 0.894531 -2 2 -2 s 2 0.894531 2 2 z m 0 0" fill="url(#o)"/>
    <g stroke-linecap="round">
        <path d="m 85.50392239456 123.50393643632 h -3.17968879586 l -1.05859405134 -8.47266011143 h 5.29687742798 z m 0 0" fill="#9a9996" stroke="#9a9996" stroke-linejoin="round" stroke-width="4.235416"/>
        <path d="m 82.3242335987 64.20703399353 h 3.17968879586 l 1.05859458077 8.47266011143 h -5.29687742798 z m 0 0" fill="#9a9996" stroke="#9a9996" stroke-linejoin="round" stroke-width="4.235416"/>
        <path d="m 667.003638 292.001148 h -6.005906 l -1.999509 -16.003453 h 10.004925 z m 0 0" fill="#9a9996" stroke="#9a9996" stroke-linejoin="round" stroke-width="8" transform="matrix(0 0.529427 -0.529427 0 208.858845 -257.684258)"/>
        <path d="m 660.997732 179.999111 h 6.005906 l 1.99951 16.003453 h -10.004925 z m 0 0" fill="#9a9996" stroke="#9a9996" stroke-linejoin="round" stroke-width="8" transform="matrix(0 0.529427 -0.529427 0 208.858845 -257.684258)"/>
        <path d="m 666.998504 291.998362 l -5.996181 0.002905 l -2.005004 -16.001056 l 10.002814 0.001218 z m 0 0" fill="#9a9996" stroke="#9a9996" stroke-linejoin="round" stroke-width="8" transform="matrix(-0.264713 0.458497 -0.458497 -0.264713 367.889148 -148.114662)"/>
        <path d="m 661.003288 180.000927 l 5.996181 -0.002905 l 2.005004 16.001056 l -10.009203 0.002472 z m 0 0" fill="#9a9996" stroke="#9a9996" stroke-linejoin="round" stroke-width="8" transform="matrix(-0.264713 0.458497 -0.458497 -0.264713 367.889148 -148.114662)"/>
        <path d="m 666.999177 292.001231 l -5.996181 -0.002907 l -2.008016 -16.000622 l 10.009204 0.002473 z m 0 0" fill="#9a9996" stroke="#9a9996" stroke-linejoin="round" stroke-width="8" transform="matrix(-0.458497 0.264713 -0.264713 -0.458497 450.828598 26.290643)"/>
        <path d="m 660.998357 180.004374 l 5.99987 -0.003483 l 2.001627 15.996933 l -10.002814 0.001216 z m 0 0" fill="#9a9996" stroke="#9a9996" stroke-linejoin="round" stroke-width="8" transform="matrix(-0.458497 0.264713 -0.264713 -0.458497 450.828598 26.290643)"/>
        <path d="m 666.998051 291.998854 l -5.99987 -0.003483 l -2.001316 -15.994667 l 10.002814 0.001217 z m 0 0" fill="#9a9996" stroke="#9a9996" stroke-linejoin="round" stroke-width="8" transform="matrix(0.458497 0.264713 -0.264713 0.458497 -158.055709 -190.119737)"/>
        <path d="m 661.002828 180.00142 l 5.996181 -0.002906 l 2.005005 16.001057 l -10.009203 0.002472 z m 0 0" fill="#9a9996" stroke="#9a9996" stroke-linejoin="round" stroke-width="8" transform="matrix(0.458497 0.264713 -0.264713 0.458497 -158.055709 -190.119737)"/>
        <path d="m 666.99919 292.002071 l -5.996181 -0.002906 l -2.008017 -16.000622 l 10.009203 0.002472 z m 0 0" fill="#9a9996" stroke="#9a9996" stroke-linejoin="round" stroke-width="8" transform="matrix(0.264713 0.458497 -0.458497 0.264713 16.349644 -273.059298)"/>
        <path d="m 661.002051 179.998825 l 5.996181 0.002906 l 2.001628 15.996933 l -10.002814 0.001217 z m 0 0" fill="#9a9996" stroke="#9a9996" stroke-linejoin="round" stroke-width="8" transform="matrix(0.264713 0.458497 -0.458497 0.264713 16.349644 -273.059298)"/>
        <path d="m 85.50392239456 122.44534238498 h -3.17968879586 l -1.05859405134 -8.47266011143 h 5.29687742798 z m 0 0" fill="#f6f5f4" stroke="#f6f5f4" stroke-linejoin="round" stroke-width="4.235416"/>
        <path d="m 82.3242335987 63.14843994218 h 3.17968879586 l 1.05859458077 8.47266011143 h -5.29687742798 z m 0 0" fill="#f6f5f4" stroke="#f6f5f4" stroke-linejoin="round" stroke-width="4.235416"/>
        <path d="m 666.996751 292.001148 h -5.998528 l -1.99951 -16.003453 h 10.004925 z m 0 0" fill="#f6f5f4" stroke="#f6f5f4" stroke-linejoin="round" stroke-width="8" transform="matrix(0 0.529427 -0.529427 0 208.858845 -258.743112)"/>
        <path d="m 660.998223 179.999111 h 5.998528 l 2.006887 16.003453 h -10.004925 z m 0 0" fill="#f6f5f4" stroke="#f6f5f4" stroke-linejoin="round" stroke-width="8" transform="matrix(0 0.529427 -0.529427 0 208.858845 -258.743112)"/>
        <path d="m 666.998901 291.9981 l -5.996181 0.002906 l -2.005004 -16.001056 l 10.002814 0.001218 z m 0 0" fill="#f6f5f4" stroke="#f6f5f4" stroke-linejoin="round" stroke-width="8" transform="matrix(-0.264713 0.458497 -0.458497 -0.264713 367.889133 -149.173506)"/>
        <path d="m 661.003685 180.000666 l 5.996181 -0.002906 l 2.005004 16.001057 l -10.009203 0.002471 z m 0 0" fill="#f6f5f4" stroke="#f6f5f4" stroke-linejoin="round" stroke-width="8" transform="matrix(-0.264713 0.458497 -0.458497 -0.264713 367.889133 -149.173506)"/>
        <path d="m 666.999413 292.000803 l -5.996181 -0.002906 l -2.008016 -16.000622 l 10.009204 0.002473 z m 0 0" fill="#f6f5f4" stroke="#f6f5f4" stroke-linejoin="round" stroke-width="8" transform="matrix(-0.458497 0.264713 -0.264713 -0.458497 450.828593 25.231791)"/>
        <path d="m 660.998593 180.003947 l 5.99987 -0.003484 l 2.001627 15.996934 l -10.002814 0.001216 z m 0 0" fill="#f6f5f4" stroke="#f6f5f4" stroke-linejoin="round" stroke-width="8" transform="matrix(-0.458497 0.264713 -0.264713 -0.458497 450.828593 25.231791)"/>
        <path d="m 666.998297 291.999283 l -5.99987 -0.003484 l -2.001316 -15.994667 l 10.002814 0.001218 z m 0 0" fill="#f6f5f4" stroke="#f6f5f4" stroke-linejoin="round" stroke-width="8" transform="matrix(0.458497 0.264713 -0.264713 0.458497 -158.055708 -191.178593)"/>
        <path d="m 661.003074 180.001848 l 5.996181 -0.002905 l 2.005005 16.001056 l -10.009203 0.002472 z m 0 0" fill="#f6f5f4" stroke="#f6f5f4" stroke-linejoin="round" stroke-width="8" transform="matrix(0.458497 0.264713 -0.264713 0.458497 -158.055708 -191.178593)"/>
        <path d="m 666.999617 292.00232 l -5.996181 -0.002906 l -2.008017 -16.000622 l 10.009203 0.002472 z m 0 0" fill="#f6f5f4" stroke="#f6f5f4" stroke-linejoin="round" stroke-width="8" transform="matrix(0.264713 0.458497 -0.458497 0.264713 16.349646 -274.118153)"/>
        <path d="m 661.002479 179.999074 l 5.996181 0.002906 l 2.001627 15.996933 l -10.002814 0.001217 z m 0 0" fill="#f6f5f4" stroke="#f6f5f4" stroke-linejoin="round" stroke-width="8" transform="matrix(0.264713 0.458497 -0.458497 0.264713 16.349646 -274.118153)"/>
    </g>
    <path d="m 49.998326 34.000594 c 0 19.884419 -16.114127 35.998547 -35.998547 35.998547 s -35.998547 -16.114128 -35.998547 -35.998547 c 0 -19.88442 16.114127 -35.998547 35.998547 -35.998547 s 35.998547 16.114127 35.998547 35.998547 z m 0 0" fill="none" stroke="url(#p)" stroke-width="24" transform="matrix(0.529427 0 0 0.529427 76.502205 75.854645)"/>
    <path d="m 104.03126279055 92.79688289887 c 0 11.10938022349 -9.00391045802 20.11719732334 -20.11719679391 20.11719732334 s -20.11719679391 -9.00781709985 -20.11719679391 -20.11719732334 c 0 -11.11328633589 9.00391045802 -20.11719679391 20.11719679391 -20.11719679391 s 20.11719679391 9.00391045802 20.11719679391 20.11719679391 z m 0 0" fill="none" stroke="#f6f5f4" stroke-width="10.58854"/>
    <path d="m 13.999779 5.498363 c -14.638474 0 -26.502722 11.864247 -26.502722 26.502721 c 0 14.638475 11.864248 26.495344 26.502722 26.495344 c 14.638475 0 26.502722 -11.856869 26.502722 -26.495344 c 0 -14.638474 -11.864247 -26.502721 -26.502722 -26.502721 z m 0 0" fill="none" stroke="url(#q)" stroke-linecap="square" stroke-linejoin="round" stroke-width="5" transform="matrix(0.529427 0 0 0.529427 76.502205 75.854645)"/>
    <path d="m 13.999779 64.000612 c -17.670941 0 -31.999528 -14.328587 -31.999528 -31.999528 c 0 -17.67094 14.328587 -31.99952765 31.999528 -31.99952765 s 31.999528 14.32858765 31.999528 31.99952765 c 0 17.670941 -14.328587 31.999528 -31.999528 31.999528 z m 0 0" fill="none" stroke="url(#r)" stroke-linecap="square" stroke-linejoin="round" stroke-width="8" transform="matrix(0.529427 0 0 0.529427 76.502205 75.854645)"/>
</svg>
