<?xml version="1.0" encoding="UTF-8" standalone="no"?>
<svg
   height="128px"
   viewBox="0 0 128 128"
   width="128px"
   version="1.1"
   id="svg41"
   sodipodi:docname="org.gnome.StartupDisk.svg"
   inkscape:version="1.3 (0e150ed6c4, 2023-07-21)"
   xmlns:inkscape="http://www.inkscape.org/namespaces/inkscape"
   xmlns:sodipodi="http://sodipodi.sourceforge.net/DTD/sodipodi-0.dtd"
   xmlns:xlink="http://www.w3.org/1999/xlink"
   xmlns="http://www.w3.org/2000/svg"
   xmlns:svg="http://www.w3.org/2000/svg">
  <defs
     id="defs41">
    <linearGradient
       id="c-3"
       gradientUnits="userSpaceOnUse"
       x1="203.99998"
       x2="268"
       y1="-64"
       y2="-64"
       gradientTransform="rotate(90,77,-127)">
      <stop
         offset="0"
         stop-color="#d5d3cf"
         id="stop5-6" />
      <stop
         offset="1"
         stop-color="#f6f5f4"
         id="stop6-0" />
    </linearGradient>
    <radialGradient
       id="b-6"
       cx="-243.06659"
       cy="-74.599976"
       gradientUnits="userSpaceOnUse"
       r="28.266657"
       gradientTransform="matrix(0,-1,-1,0,-50,-204)">
      <stop
         offset="0"
         stop-color="#d5d3cf"
         id="stop3-2" />
      <stop
         offset="1"
         stop-color="#949390"
         id="stop4-6" />
    </radialGradient>
    <linearGradient
       id="a-1"
       gradientUnits="userSpaceOnUse"
       x1="64"
       x2="64"
       y1="262.5"
       y2="232"
       gradientTransform="translate(-50,-204)">
      <stop
         offset="0"
         stop-color="#9a9996"
         id="stop1-8" />
      <stop
         offset="1"
         stop-color="#77767b"
         id="stop2-7" />
    </linearGradient>
  </defs>
  <sodipodi:namedview
     id="namedview41"
     pagecolor="#ffffff"
     bordercolor="#000000"
     borderopacity="0.25"
     inkscape:showpageshadow="2"
     inkscape:pageopacity="0.0"
     inkscape:pagecheckerboard="0"
     inkscape:deskcolor="#d1d1d1"
     inkscape:zoom="5.7578125"
     inkscape:cx="64"
     inkscape:cy="64"
     inkscape:window-width="1728"
     inkscape:window-height="985"
     inkscape:window-x="0"
     inkscape:window-y="0"
     inkscape:window-maximized="1"
     inkscape:current-layer="svg41" />
  <linearGradient
     id="a"
     gradientTransform="matrix(0.25 0 0 0.243056 -16 -80.435722)"
     gradientUnits="userSpaceOnUse"
     x1="176"
     x2="494.999939"
     y1="799.963867"
     y2="799.963867">
    <stop
       offset="0"
       id="stop1" />
    <stop
       offset="0.0470219"
       stop-color="#424048"
       id="stop2" />
    <stop
       offset="0.0971787"
       stop-color="#241f31"
       id="stop3" />
    <stop
       offset="0.899687"
       stop-color="#241f31"
       id="stop4" />
    <stop
       offset="0.949843"
       stop-color="#424048"
       id="stop5" />
    <stop
       offset="1"
       id="stop6" />
  </linearGradient>
  <linearGradient
     id="b"
     gradientTransform="matrix(0.25 0 0 0.243056 -16 -80.435722)"
     gradientUnits="userSpaceOnUse"
     x1="177"
     x2="496"
     y1="619.963867"
     y2="619.963867">
    <stop
       offset="0"
       stop-color="#424048"
       id="stop7" />
    <stop
       offset="0.0470219"
       stop-color="#f6f5f4"
       id="stop8" />
    <stop
       offset="0.0971787"
       stop-color="#949390"
       id="stop9" />
    <stop
       offset="0.899687"
       stop-color="#d5d3cf"
       id="stop10" />
    <stop
       offset="0.949843"
       stop-color="#f6f5f4"
       id="stop11" />
    <stop
       offset="1"
       stop-color="#424048"
       id="stop12" />
  </linearGradient>
  <linearGradient
     id="c"
     gradientUnits="userSpaceOnUse"
     x1="68.00000775"
     x2="68.00000775"
     y1="2.249954"
     y2="106.249954">
    <stop
       offset="0"
       stop-color="#deddda"
       id="stop13" />
    <stop
       offset="1"
       stop-color="#f6f5f4"
       id="stop14" />
  </linearGradient>
  <radialGradient
     id="d"
     cx="112.042053"
     cy="132.151825"
     gradientTransform="matrix(0.573927 -0.480654 0.340622 0.406722 -24.35643 101.866379)"
     gradientUnits="userSpaceOnUse"
     r="144">
    <stop
       offset="0"
       stop-color="#d5d3cf"
       id="stop15" />
    <stop
       offset="0.129392"
       stop-color="#949390"
       id="stop16" />
    <stop
       offset="0.257694"
       stop-color="#d5d3cf"
       id="stop17" />
    <stop
       offset="0.334113"
       stop-color="#deddda"
       id="stop18" />
    <stop
       offset="0.446104"
       stop-color="#949390"
       id="stop19" />
    <stop
       offset="0.51534"
       stop-color="#deddda"
       id="stop20" />
    <stop
       offset="0.657589"
       stop-color="#f6f5f4"
       id="stop21" />
    <stop
       offset="0.809046"
       stop-color="#949390"
       id="stop22" />
    <stop
       offset="1"
       stop-color="#ffffff"
       id="stop23" />
  </radialGradient>
  <linearGradient
     id="e"
     gradientUnits="userSpaceOnUse"
     x1="71.73707575"
     x2="58.4499625"
     y1="55.1854875"
     y2="32.17152775">
    <stop
       offset="0"
       stop-color="#dfddd9"
       id="stop24" />
    <stop
       offset="1"
       stop-color="#f9f9f8"
       id="stop25" />
  </linearGradient>
  <linearGradient
     id="f"
     gradientUnits="userSpaceOnUse">
    <stop
       offset="0"
       stop-opacity="0.25098"
       id="stop26" />
    <stop
       offset="1"
       stop-opacity="0.031373"
       id="stop27" />
  </linearGradient>
  <radialGradient
     id="g"
     cx="35.99999"
     cy="104.8950995"
     r="4"
     xlink:href="#f" />
  <linearGradient
     id="h"
     gradientUnits="userSpaceOnUse">
    <stop
       offset="0"
       stop-color="#949390"
       id="stop28" />
    <stop
       offset="1"
       stop-color="#424048"
       id="stop29" />
  </linearGradient>
  <radialGradient
     id="i"
     cx="28.1048890128"
     cy="105.27128512586"
     r="2.077984"
     xlink:href="#h" />
  <radialGradient
     id="j"
     cx="99.999989"
     cy="104.8950995"
     r="4"
     xlink:href="#f" />
  <radialGradient
     id="k"
     cx="100.00003990404"
     cy="104.93936984209"
     r="2.751304"
     xlink:href="#h" />
  <radialGradient
     id="l"
     cx="99.999989"
     cy="14.8950995"
     r="4"
     xlink:href="#f" />
  <radialGradient
     id="m"
     cx="100.00003990404"
     cy="14.93936984209"
     r="2.751304"
     xlink:href="#h" />
  <radialGradient
     id="n"
     cx="27.99999"
     cy="14.8950995"
     r="4"
     xlink:href="#f" />
  <radialGradient
     id="o"
     cx="28.00004190404"
     cy="14.93936984209"
     r="2.751304"
     xlink:href="#h" />
  <path
     d="m 28 50 h 72 c 4.433594 0 8 3.566406 8 8 v 54 c 0 4.433594 -3.566406 8 -8 8 h -72 c -4.433594 0 -8 -3.566406 -8 -8 v -54 c 0 -4.433594 3.566406 -8 8 -8 z m 0 0"
     fill="url(#a)"
     id="path29" />
  <path
     d="m 28 44 h 72 c 4.433594 0 8 3.566406 8 8 v 54 c 0 4.433594 -3.566406 8 -8 8 h -72 c -4.433594 0 -8 -3.566406 -8 -8 v -54 c 0 -4.433594 3.566406 -8 8 -8 z m 0 0"
     fill="url(#b)"
     id="path30" />
  <path
     d="m 28 8 h 72 c 4.433594 0 8 3.773438 8 8.457031 v 87.085938 c 0 4.683593 -3.566406 8.457031 -8 8.457031 h -72 c -4.433594 0 -8 -3.773438 -8 -8.457031 v -87.085938 c 0 -4.683593 3.566406 -8.457031 8 -8.457031 z m 0 0"
     fill="url(#c)"
     id="path31" />
  <path
     d="m 38 12 c -2.214844 0 -4 1.785156 -4 4 c 0 3.3125 -2.6875 6 -6 6 c -2.214844 0 -4 1.785156 -4 4 v 8 c 0 2.214844 1.785156 4 4 4 c 3.3125 0 6 2.6875 6 6 c -0.003906 1.476562 -0.550781 2.902344 -1.539062 4 c -5.921876 6.59375 -8.445313 15.136719 -8.460938 24 c 0 19.882812 20.117188 36 40 36 s 40 -16.117188 40 -36 c -0.015625 -8.863281 -2.539062 -17.410156 -8.464844 -24 c -0.984375 -1.097656 -1.53125 -2.523438 -1.535156 -4 c 0 -3.3125 2.6875 -6 6 -6 c 2.214844 0 4 -1.785156 4 -4 v -8 c 0 -2.214844 -1.785156 -4 -4 -4 c -3.3125 0 -6 -2.6875 -6 -6 c 0 -2.214844 -1.785156 -4 -4 -4 z m 26 52 c 3.3125 0 6 2.6875 6 6 s -2.6875 6 -6 6 s -6 -2.6875 -6 -6 s 2.6875 -6 6 -6 z m 0 0"
     fill="url(#d)"
     id="path32" />
  <path
     d="m 38 10 c -2.214844 0 -4 1.785156 -4 4 c 0 3.3125 -2.6875 6 -6 6 c -2.214844 0 -4 1.785156 -4 4 v 8 c 0 2.214844 1.785156 4 4 4 c 3.3125 0 6 2.6875 6 6 c -0.003906 1.476562 -0.550781 2.902344 -1.539062 4 c -5.921876 6.59375 -8.445313 15.136719 -8.460938 24 c 0 19.882812 20.117188 36 40 36 s 40 -16.117188 40 -36 c -0.015625 -8.863281 -2.539062 -17.410156 -8.464844 -24 c -0.984375 -1.097656 -1.53125 -2.523438 -1.535156 -4 c 0 -3.3125 2.6875 -6 6 -6 c 2.214844 0 4 -1.785156 4 -4 v -8 c 0 -2.214844 -1.785156 -4 -4 -4 c -3.3125 0 -6 -2.6875 -6 -6 c 0 -2.214844 -1.785156 -4 -4 -4 z m 26 52 c 3.3125 0 6 2.6875 6 6 s -2.6875 6 -6 6 s -6 -2.6875 -6 -6 s 2.6875 -6 6 -6 z m 0 0"
     fill="url(#e)"
     id="path33" />
  <path
     d="m 32 106 c 0 2.210938 -1.789062 4 -4 4 s -4 -1.789062 -4 -4 s 1.789062 -4 4 -4 s 4 1.789062 4 4 z m 0 0"
     fill="url(#g)"
     id="path34" />
  <path
     d="m 30 106 c 0 1.105469 -0.894531 2 -2 2 s -2 -0.894531 -2 -2 s 0.894531 -2 2 -2 s 2 0.894531 2 2 z m 0 0"
     fill="url(#i)"
     id="path35" />
  <path
     d="m 104 106 c 0 2.210938 -1.789062 4 -4 4 s -4 -1.789062 -4 -4 s 1.789062 -4 4 -4 s 4 1.789062 4 4 z m 0 0"
     fill="url(#j)"
     id="path36" />
  <path
     d="m 102 106 c 0 1.105469 -0.894531 2 -2 2 s -2 -0.894531 -2 -2 s 0.894531 -2 2 -2 s 2 0.894531 2 2 z m 0 0"
     fill="url(#k)"
     id="path37" />
  <path
     d="m 104 16 c 0 2.210938 -1.789062 4 -4 4 s -4 -1.789062 -4 -4 s 1.789062 -4 4 -4 s 4 1.789062 4 4 z m 0 0"
     fill="url(#l)"
     id="path38" />
  <path
     d="m 102 16 c 0 1.105469 -0.894531 2 -2 2 s -2 -0.894531 -2 -2 s 0.894531 -2 2 -2 s 2 0.894531 2 2 z m 0 0"
     fill="url(#m)"
     id="path39" />
  <path
     d="m 32 16 c 0 2.210938 -1.789062 4 -4 4 s -4 -1.789062 -4 -4 s 1.789062 -4 4 -4 s 4 1.789062 4 4 z m 0 0"
     fill="url(#n)"
     id="path40" />
  <path
     d="m 30 16 c 0 1.105469 -0.894531 2 -2 2 s -2 -0.894531 -2 -2 s 0.894531 -2 2 -2 s 2 0.894531 2 2 z m 0 0"
     fill="url(#o)"
     id="path41" />
  <g
     id="g41"
     transform="matrix(0.52942673,0,0,0.52942673,76.502205,75.854647)">
    <g
       stroke-width="8"
       id="g29"
       transform="translate(-50,-32)">
      <path
         d="m 67,122 h -6 l -2,-16 h 10 z m 0,0"
         fill="#9a9996"
         stroke="#9a9996"
         stroke-linecap="round"
         stroke-linejoin="round"
         id="path6" />
      <path
         d="m 61,10 h 6 l 2,16 H 59 Z m 0,0"
         fill="#9a9996"
         stroke="#9a9996"
         stroke-linecap="round"
         stroke-linejoin="round"
         id="path7" />
      <path
         d="m 667.00009,291.99991 h -6 l -2,-16 h 10 z m 0,0"
         fill="#9a9996"
         stroke="#9a9996"
         stroke-linecap="round"
         stroke-linejoin="round"
         transform="rotate(90,449,-149.00009)"
         id="path8" />
      <path
         d="m 661.00009,179.99991 h 6 l 2,16 h -10 z m 0,0"
         fill="#9a9996"
         stroke="#9a9996"
         stroke-linecap="round"
         stroke-linejoin="round"
         transform="rotate(90,449,-149.00009)"
         id="path9" />
      <path
         d="m 666.99905,291.99892 -5.99927,-4.2e-4 -2.00154,-15.99802 9.99991,4e-5 z m 0,0"
         fill="#9a9996"
         stroke="#9a9996"
         stroke-linecap="round"
         stroke-linejoin="round"
         transform="rotate(120.00001,413.07482,-22.205258)"
         id="path10" />
      <path
         d="m 661.00111,180.0008 5.99927,4.2e-4 2.00154,15.99803 -10.00329,0.002 z m 0,0"
         fill="#9a9996"
         stroke="#9a9996"
         stroke-linecap="round"
         stroke-linejoin="round"
         transform="rotate(120.00001,413.07482,-22.205258)"
         id="path11" />
      <path
         d="m 667.00035,291.99847 -5.99928,4.2e-4 -2.00248,-16.00035 10.0033,0.002 z m 0,0"
         fill="#9a9996"
         stroke="#9a9996"
         stroke-linecap="round"
         stroke-linejoin="round"
         transform="rotate(149.99999,386.77576,70.615186)"
         id="path12" />
      <path
         d="m 660.99974,180.00119 5.99928,-4.2e-4 2.00248,16.00035 -10.0033,-0.002 z m 0,0"
         fill="#9a9996"
         stroke="#9a9996"
         stroke-linecap="round"
         stroke-linejoin="round"
         transform="rotate(149.99999,386.77576,70.615186)"
         id="path13" />
      <path
         d="m 666.99902,291.99905 -5.99928,-4.2e-4 -2.00154,-15.99803 10.0033,-0.002 z m 0,0"
         fill="#9a9996"
         stroke="#9a9996"
         stroke-linecap="round"
         stroke-linejoin="round"
         transform="rotate(30.000012,681.22345,-968.61565)"
         id="path14" />
      <path
         d="m 661.00107,180.00093 5.99928,4.2e-4 2.00154,15.99802 -10.0033,0.002 z m 0,0"
         fill="#9a9996"
         stroke="#9a9996"
         stroke-linecap="round"
         stroke-linejoin="round"
         transform="rotate(30.000012,681.22345,-968.61565)"
         id="path15" />
      <path
         d="m 667.00038,291.99859 -5.99927,4.2e-4 -2.00248,-16.00035 10.00329,0.002 z m 0,0"
         fill="#9a9996"
         stroke="#9a9996"
         stroke-linecap="round"
         stroke-linejoin="round"
         transform="rotate(59.999988,511.22442,-368.61557)"
         id="path16" />
      <path
         d="m 660.99978,180.00131 5.99927,-4.1e-4 1.9991,15.99839 -9.99991,5e-5 z m 0,0"
         fill="#9a9996"
         stroke="#9a9996"
         stroke-linecap="round"
         stroke-linejoin="round"
         transform="rotate(59.999988,511.22442,-368.61557)"
         id="path17" />
      <path
         d="m 67,120 h -6 l -2,-16 h 10 z m 0,0"
         fill="#f6f5f4"
         stroke="#f6f5f4"
         stroke-linecap="round"
         stroke-linejoin="round"
         id="path18" />
      <path
         d="m 61,8 h 6 l 2,16 H 59 Z m 0,0"
         fill="#f6f5f4"
         stroke="#f6f5f4"
         stroke-linecap="round"
         stroke-linejoin="round"
         id="path19" />
      <path
         d="m 667.00009,291.99991 h -6 l -2,-16 h 10 z m 0,0"
         fill="#f6f5f4"
         stroke="#f6f5f4"
         stroke-linecap="round"
         stroke-linejoin="round"
         transform="rotate(90,450,-150.00009)"
         id="path20" />
      <path
         d="m 661.00009,179.99991 h 6 l 2,16 h -10 z m 0,0"
         fill="#f6f5f4"
         stroke="#f6f5f4"
         stroke-linecap="round"
         stroke-linejoin="round"
         transform="rotate(90,450,-150.00009)"
         id="path21" />
      <path
         d="m 666.99905,291.99892 -5.99927,-4.2e-4 -2.00154,-15.99802 9.99991,4e-5 z m 0,0"
         fill="#f6f5f4"
         stroke="#f6f5f4"
         stroke-linecap="round"
         stroke-linejoin="round"
         transform="rotate(120.00001,413.65217,-23.205258)"
         id="path22" />
      <path
         d="m 661.00111,180.0008 5.99927,4.2e-4 2.00154,15.99803 -10.00329,0.002 z m 0,0"
         fill="#f6f5f4"
         stroke="#f6f5f4"
         stroke-linecap="round"
         stroke-linejoin="round"
         transform="rotate(120.00001,413.65217,-23.205258)"
         id="path23" />
      <path
         d="m 667.00035,291.99847 -5.99928,4.2e-4 -2.00248,-16.00035 10.0033,0.002 z m 0,0"
         fill="#f6f5f4"
         stroke="#f6f5f4"
         stroke-linecap="round"
         stroke-linejoin="round"
         transform="rotate(149.99999,387.0437,69.615185)"
         id="path24" />
      <path
         d="m 660.99974,180.00119 5.99928,-4.2e-4 2.00248,16.00035 -10.0033,-0.002 z m 0,0"
         fill="#f6f5f4"
         stroke="#f6f5f4"
         stroke-linecap="round"
         stroke-linejoin="round"
         transform="rotate(149.99999,387.0437,69.615185)"
         id="path25" />
      <path
         d="m 666.99902,291.99905 -5.99928,-4.2e-4 -2.00154,-15.99803 10.0033,-0.002 z m 0,0"
         fill="#f6f5f4"
         stroke="#f6f5f4"
         stroke-linecap="round"
         stroke-linejoin="round"
         transform="rotate(30.000012,684.9555,-969.61565)"
         id="path26" />
      <path
         d="m 661.00107,180.00093 5.99928,4.2e-4 2.00154,15.99802 -10.0033,0.002 z m 0,0"
         fill="#f6f5f4"
         stroke="#f6f5f4"
         stroke-linecap="round"
         stroke-linejoin="round"
         transform="rotate(30.000012,684.9555,-969.61565)"
         id="path27" />
      <path
         d="m 667.00038,291.99859 -5.99927,4.2e-4 -2.00248,-16.00035 10.00329,0.002 z m 0,0"
         fill="#f6f5f4"
         stroke="#f6f5f4"
         stroke-linecap="round"
         stroke-linejoin="round"
         transform="rotate(59.999988,512.95647,-369.61557)"
         id="path28" />
      <path
         d="m 660.99978,180.00131 5.99927,-4.1e-4 1.9991,15.99839 -9.99991,5e-5 z m 0,0"
         fill="#f6f5f4"
         stroke="#f6f5f4"
         stroke-linecap="round"
         stroke-linejoin="round"
         transform="rotate(59.999988,512.95647,-369.61557)"
         id="path29-9" />
    </g>
    <path
       d="M 50,34 C 50,53.88281 33.882812,70 14,70 -5.882812,70 -22,53.88281 -22,34 -22,14.11719 -5.882812,-2 14,-2 33.882812,-2 50,14.11719 50,34 Z m 0,0"
       fill="none"
       stroke="url(#a)"
       stroke-width="24"
       id="path30-2"
       style="stroke:url(#a-1)" />
    <path
       d="M 52,32 C 52,52.988281 34.988281,70 14,70 -6.988281,70 -24,52.988281 -24,32 -24,11.011719 -6.988281,-6 14,-6 34.988281,-6 52,11.011719 52,32 Z m 0,0"
       fill="none"
       stroke="#f6f5f4"
       stroke-width="20"
       id="path31-0" />
    <path
       d="M 14,5.5 C -0.636719,5.5 -12.5,17.36328 -12.5,32 -12.5,46.63672 -0.636719,58.5 14,58.5 28.636719,58.5 40.5,46.63672 40.5,32 40.5,17.36328 28.636719,5.5 14,5.5 Z m 0,0"
       fill="none"
       stroke="url(#b)"
       stroke-linecap="square"
       stroke-linejoin="round"
       stroke-width="5"
       id="path32-2"
       style="stroke:url(#b-6)" />
    <path
       d="M 14,64 C -3.671875,64 -18,49.67187 -18,32 -18,14.32812 -3.671875,0 14,0 31.671875,0 46,14.32812 46,32 46,49.67187 31.671875,64 14,64 Z m 0,0"
       fill="none"
       stroke="url(#c)"
       stroke-linecap="square"
       stroke-linejoin="round"
       stroke-width="8"
       id="path33-3"
       style="stroke:url(#c-3)" />
  </g>
</svg>
